<svg width="16" height="16" viewBox="0 0 16 16" fill="none" xmlns="http://www.w3.org/2000/svg">
<path d="M10.9167 6.00134C12.2942 6.00942 13.0403 6.07372 13.5269 6.58598C14.0834 7.17178 14.0834 8.11458 14.0834 10.0002V10.6668C14.0834 12.5524 14.0834 13.4953 13.5269 14.081C12.9704 14.6668 12.0747 14.6668 10.2834 14.6668H5.21675C3.42541 14.6668 2.52974 14.6668 1.97325 14.081C1.41675 13.4953 1.41675 12.5524 1.41675 10.6668V10.0002C1.41675 8.11458 1.41675 7.17178 1.97325 6.58597C2.45989 6.07372 3.2059 6.00942 4.58341 6.00134" stroke="white" stroke-width="1.5" stroke-linecap="round"/>
<path d="M7.74998 10V1.33337M7.74998 1.33337L9.64998 3.66671M7.74998 1.33337L5.84998 3.66671" stroke="white" stroke-width="1.5" stroke-linecap="round" stroke-linejoin="round"/>
</svg>
