<svg width="17" height="16" viewBox="0 0 17 16" fill="none" xmlns="http://www.w3.org/2000/svg">
<path d="M10.75 6L6.75 10M6.75 10V7M6.75 10H9.75" stroke="white" stroke-width="1.5" stroke-linecap="round" stroke-linejoin="round"/>
<path d="M2.08337 7.99999C2.08337 4.85729 2.08337 3.28595 3.05969 2.30964C4.03599 1.33333 5.60734 1.33333 8.75004 1.33333C11.8927 1.33333 13.4641 1.33333 14.4404 2.30964C15.4167 3.28595 15.4167 4.85729 15.4167 7.99999C15.4167 11.1427 15.4167 12.7141 14.4404 13.6903C13.4641 14.6667 11.8927 14.6667 8.75004 14.6667C5.60734 14.6667 4.03599 14.6667 3.05969 13.6903C2.08337 12.7141 2.08337 11.1427 2.08337 7.99999Z" stroke="white" stroke-width="1.5"/>
</svg>
