<svg width="17" height="16" viewBox="0 0 17 16" fill="none" xmlns="http://www.w3.org/2000/svg">
<path d="M6.75 10L10.75 6M10.75 6L10.75 9M10.75 6L7.75 6" stroke="white" stroke-width="1.5" stroke-linecap="round" stroke-linejoin="round"/>
<path d="M15.4166 7.99996C15.4166 11.1427 15.4166 12.714 14.4403 13.6903C13.464 14.6666 11.8927 14.6666 8.74996 14.6666C5.60729 14.6666 4.03589 14.6666 3.05963 13.6903C2.08329 12.714 2.08329 11.1427 2.08329 7.99996C2.08329 4.85729 2.08329 3.28589 3.05963 2.30963C4.03589 1.33329 5.60729 1.33329 8.74996 1.33329C11.8927 1.33329 13.464 1.33329 14.4403 2.30963C15.4166 3.28589 15.4166 4.85729 15.4166 7.99996Z" stroke="white" stroke-width="1.5"/>
</svg>
