<svg width="17" height="16" viewBox="0 0 17 16" fill="none" xmlns="http://www.w3.org/2000/svg">
<path d="M11.5834 6.00134C13.0334 6.00942 13.8186 6.07372 14.3309 6.58598C14.9167 7.17178 14.9167 8.11458 14.9167 10.0002V10.6668C14.9167 12.5524 14.9167 13.4953 14.3309 14.081C13.7451 14.6668 12.8023 14.6668 10.9167 14.6668H5.58337C3.69775 14.6668 2.75495 14.6668 2.16916 14.081C1.58337 13.4953 1.58337 12.5524 1.58337 10.6668V10.0002C1.58337 8.11458 1.58337 7.17178 2.16916 6.58597C2.68141 6.07372 3.46669 6.00942 4.91671 6.00134" stroke="white" stroke-width="1.5" stroke-linecap="round"/>
<path d="M8.25 1.33337V10M8.25 10L6.25 7.66671M8.25 10L10.25 7.66671" stroke="white" stroke-width="1.5" stroke-linecap="round" stroke-linejoin="round"/>
</svg>
